# xmcd
#
# Track frame offsets:
#	150
#	12032
#	23060
#	34915
#	47065
#	59617
#	72167
#	83160
#	95107
#	105210
#
# Disc length: 1553 seconds
#
# Revision: 1
# Processed by: cddbd v1.5.1PL2 Copyright (c) Steve Scherf et al.
# Submitted via: audiograbber 1.83.01
#
DISCID=78060f0a
DTITLE=Jimmy Swaggart - Healing
DYEAR=1986
DGENRE=Christian Worship
TTITLE0=Living Where the Healing Waters Flow
TTITLE1=I Believe in Miracles
TTITLE2=Someone to Care
TTITLE3=Cleanse Me
TTITLE4=I Want to Be Healed
TTITLE5=Healing in the Name of Jesus
TTITLE6=Rise and Be Healed
TTITLE7=Only Believe
TTITLE8=The Healer
TTITLE9=Touching Jesus
EXTD=
EXTT0=
EXTT1=
EXTT2=
EXTT3=
EXTT4=
EXTT5=
EXTT6=
EXTT7=
EXTT8=
EXTT9=
PLAYORDER=
